<svg width="139" height="48" viewBox="0 0 139 48" fill="none" xmlns="http://www.w3.org/2000/svg">
<g opacity="0.7">
<path d="M21.0503 14.0131H28.6724C33.5318 14.0131 37.546 16.8247 37.546 23.2442V24.5931C37.546 31.0613 33.7918 33.9704 28.8187 33.9704H21.0503V14.0131ZM25.3083 17.6373V30.33H28.5749C31.3377 30.33 33.1905 28.526 33.1905 24.5118V23.4555C33.1905 19.4412 31.2402 17.6373 28.4287 17.6373H25.3083ZM39.805 17.8323H43.2179L43.7705 21.5865C44.4205 19.0349 46.0782 17.6698 49.0848 17.6698H50.1412V21.9765H48.386C44.9243 21.9765 44.0792 23.1792 44.0792 26.5921V34.0192H39.87V17.8323H39.805ZM50.9863 26.2508V25.7957C50.9863 20.3838 54.448 17.426 59.161 17.426C63.9716 17.426 67.3357 20.3838 67.3357 25.7957V26.2508C67.3357 31.5652 64.0691 34.4255 59.161 34.4255C53.9441 34.3767 50.9863 31.5814 50.9863 26.2508ZM63.029 26.202V25.7957C63.029 22.7891 61.5175 20.9852 59.1123 20.9852C56.7557 20.9852 55.1955 22.6429 55.1955 25.7957V26.202C55.1955 29.1111 56.707 30.7688 59.1123 30.7688C61.5175 30.7201 63.029 29.1111 63.029 26.202ZM69.546 17.8323H73.0564L73.4627 20.8877C74.3078 18.8399 76.1118 17.426 78.7771 17.426C82.8888 17.426 85.6029 20.3838 85.6029 25.8607V26.3158C85.6029 31.6302 82.5963 34.4417 78.7771 34.4417C76.2255 34.4417 74.4703 33.2879 73.6089 31.4351V39.6098H69.4972L69.546 17.8323ZM81.3286 26.202V25.8445C81.3286 22.6266 79.6709 21.0339 77.4607 21.0339C75.1041 21.0339 73.5439 22.8379 73.5439 25.8445V26.1533C73.5439 29.0136 75.0554 30.8176 77.4119 30.8176C79.8334 30.7688 81.3286 29.2249 81.3286 26.202ZM91.8273 31.0288L91.4698 33.9867H87.8619V12.4204H91.9736V20.6926C92.8837 18.5799 94.6877 17.426 97.2392 17.426C101.107 17.4748 103.968 20.1401 103.968 25.5032V26.007C103.968 31.3701 101.253 34.4417 97.1417 34.4417C94.4277 34.3767 92.6724 33.1253 91.8273 31.0288ZM99.6445 26.007V25.6007C99.6445 22.6429 98.0356 20.9852 95.7766 20.9852C93.4688 20.9852 91.8599 22.8379 91.8599 25.6495V26.007C91.8599 29.0136 93.42 30.7688 95.7278 30.7688C98.1981 30.7688 99.6445 29.2249 99.6445 26.007ZM105.771 26.2508V25.7957C105.771 20.3838 109.233 17.426 113.946 17.426C118.757 17.426 122.121 20.3838 122.121 25.7957V26.2508C122.121 31.5652 118.806 34.4255 113.946 34.4255C108.729 34.3767 105.771 31.5814 105.771 26.2508ZM117.847 26.202V25.7957C117.847 22.7891 116.335 20.9852 113.93 20.9852C111.573 20.9852 110.013 22.6429 110.013 25.7957V26.202C110.013 29.1111 111.525 30.7688 113.93 30.7688C116.351 30.7201 117.847 29.1111 117.847 26.202ZM127.63 25.6007L121.958 17.8323H126.818L130.084 22.6916L133.4 17.8323H138.21L132.457 25.5519L138.519 33.9867H133.757L130.052 28.6236L126.444 33.9867H121.471L127.63 25.6007Z" fill="black"/>
<path d="M-5.14779 14.0132L-14.5739 20.0264L-5.14779 26.0396L-14.5739 32.0528L-24 26.0071L-14.5739 19.9939L-24 14.0132L-14.5739 8L-5.14779 14.0132ZM-14.6227 33.9868L-5.19654 27.9736L4.22956 33.9868L-5.19654 40L-14.6227 33.9868ZM-5.14779 26.0071L4.27832 19.9939L-5.14779 14.0132L4.22956 8L13.6557 14.0132L4.22956 20.0264L13.6557 26.0396L4.22956 32.0528L-5.14779 26.0071Z" fill="black"/>
</g>
</svg>
