<svg width="100" height="100" viewBox="0 0 100 100" fill="none" xmlns="http://www.w3.org/2000/svg">
<g clip-path="url(#clip0_36_268)">
<path d="M100 0H0V100H100V0Z" fill="#F2B864" fill-opacity="0.22"/>
<path d="M49.9999 54.1667C52.3011 54.1667 54.1666 52.3012 54.1666 50C54.1666 47.6989 52.3011 45.8334 49.9999 45.8334C47.6987 45.8334 45.8333 47.6989 45.8333 50C45.8333 52.3012 47.6987 54.1667 49.9999 54.1667Z" fill="#F2B864" stroke="black" stroke-opacity="0.47" stroke-width="1.152" stroke-linecap="round" stroke-linejoin="round"/>
<path d="M49.9999 37.5C52.3011 37.5 54.1666 35.6345 54.1666 33.3333C54.1666 31.0321 52.3011 29.1666 49.9999 29.1666C47.6987 29.1666 45.8333 31.0321 45.8333 33.3333C45.8333 35.6345 47.6987 37.5 49.9999 37.5Z" fill="#F2B864" stroke="black" stroke-opacity="0.47" stroke-width="1.152" stroke-linecap="round" stroke-linejoin="round"/>
<path d="M49.9999 20.8333C52.3011 20.8333 54.1666 18.9679 54.1666 16.6667C54.1666 14.3655 52.3011 12.5 49.9999 12.5C47.6987 12.5 45.8333 14.3655 45.8333 16.6667C45.8333 18.9679 47.6987 20.8333 49.9999 20.8333Z" fill="#F2B864" stroke="black" stroke-opacity="0.47" stroke-width="1.152" stroke-linecap="round" stroke-linejoin="round"/>
<path d="M49.9999 87.5C52.3011 87.5 54.1666 85.6345 54.1666 83.3333C54.1666 81.0321 52.3011 79.1666 49.9999 79.1666C47.6987 79.1666 45.8333 81.0321 45.8333 83.3333C45.8333 85.6345 47.6987 87.5 49.9999 87.5Z" fill="#F2B864" stroke="black" stroke-opacity="0.47" stroke-width="1.152" stroke-linecap="round" stroke-linejoin="round"/>
<path d="M49.9999 70.8333C52.3011 70.8333 54.1666 68.9679 54.1666 66.6667C54.1666 64.3655 52.3011 62.5 49.9999 62.5C47.6987 62.5 45.8333 64.3655 45.8333 66.6667C45.8333 68.9679 47.6987 70.8333 49.9999 70.8333Z" fill="#F2B864" stroke="black" stroke-opacity="0.47" stroke-width="1.152" stroke-linecap="round" stroke-linejoin="round"/>
<path d="M66.6667 54.1667C68.9679 54.1667 70.8333 52.3012 70.8333 50C70.8333 47.6989 68.9679 45.8334 66.6667 45.8334C64.3655 45.8334 62.5 47.6989 62.5 50C62.5 52.3012 64.3655 54.1667 66.6667 54.1667Z" fill="#F2B864" stroke="black" stroke-opacity="0.47" stroke-width="1.152" stroke-linecap="round" stroke-linejoin="round"/>
<path d="M83.3333 54.1667C85.6345 54.1667 87.5 52.3012 87.5 50C87.5 47.6989 85.6345 45.8334 83.3333 45.8334C81.0321 45.8334 79.1666 47.6989 79.1666 50C79.1666 52.3012 81.0321 54.1667 83.3333 54.1667Z" fill="#F2B864" stroke="black" stroke-opacity="0.47" stroke-width="1.152" stroke-linecap="round" stroke-linejoin="round"/>
<path d="M16.6667 54.1667C18.9679 54.1667 20.8333 52.3012 20.8333 50C20.8333 47.6989 18.9679 45.8334 16.6667 45.8334C14.3655 45.8334 12.5 47.6989 12.5 50C12.5 52.3012 14.3655 54.1667 16.6667 54.1667Z" fill="#F2B864" stroke="black" stroke-opacity="0.47" stroke-width="1.152" stroke-linecap="round" stroke-linejoin="round"/>
<path d="M33.3333 54.1667C35.6345 54.1667 37.5 52.3012 37.5 50C37.5 47.6989 35.6345 45.8334 33.3333 45.8334C31.0321 45.8334 29.1666 47.6989 29.1666 50C29.1666 52.3012 31.0321 54.1667 33.3333 54.1667Z" fill="#F2B864" stroke="black" stroke-opacity="0.47" stroke-width="1.152" stroke-linecap="round" stroke-linejoin="round"/>
<path d="M87.4999 25C86.0245 24.9868 84.5719 25.3656 83.2908 26.0976C82.0097 26.8297 80.946 27.8888 80.2083 29.1667H70.8333V19.7917C72.4219 18.8744 73.6636 17.4586 74.3656 15.7638C75.0676 14.069 75.1908 12.1899 74.716 10.418C74.2412 8.64602 73.195 7.08025 71.7396 5.96351C70.2842 4.84677 68.501 4.24146 66.6666 4.24146C64.8321 4.24146 63.0489 4.84677 61.5936 5.96351C60.1382 7.08025 59.092 8.64602 58.6172 10.418C58.1424 12.1899 58.2656 14.069 58.9676 15.7638C59.6696 17.4586 60.9112 18.8744 62.4999 19.7917V37.5H80.2083C80.9381 38.764 81.9872 39.8142 83.2505 40.5454C84.5137 41.2765 85.9469 41.6631 87.4065 41.6663C88.8661 41.6695 90.3009 41.2893 91.5674 40.5638C92.8339 39.8382 93.8876 38.7927 94.6231 37.5319C95.3586 36.2711 95.75 34.8393 95.7581 33.3797C95.7663 31.9201 95.391 30.484 94.6697 29.215C93.9485 27.9461 92.9065 26.8889 91.6483 26.1491C90.39 25.4094 88.9595 25.0131 87.4999 25Z" fill="#F2B864" stroke="black" stroke-opacity="0.47" stroke-width="1.152" stroke-linecap="round" stroke-linejoin="round"/>
<path d="M4.16661 33.3333C4.13666 35.1922 4.72918 37.0078 5.84993 38.4912C6.97069 39.9745 8.55529 41.0405 10.3517 41.5196C12.1481 41.9986 14.053 41.8632 15.7636 41.1348C17.4741 40.4064 18.892 39.127 19.7916 37.5H37.4999V19.7917C39.0886 18.8744 40.3303 17.4586 41.0323 15.7638C41.7343 14.069 41.8574 12.1899 41.3827 10.418C40.9079 8.64602 39.8617 7.08025 38.4063 5.96351C36.9509 4.84677 35.1677 4.24146 33.3333 4.24146C31.4988 4.24146 29.7156 4.84677 28.2603 5.96351C26.8049 7.08025 25.7587 8.64602 25.2839 10.418C24.8091 12.1899 24.9323 14.069 25.6343 15.7638C26.3363 17.4586 27.5779 18.8744 29.1666 19.7917V29.1667H19.7916C18.892 27.5397 17.4741 26.2602 15.7636 25.5319C14.053 24.8035 12.1481 24.6681 10.3517 25.1471C8.55529 25.6261 6.97069 26.6921 5.84993 28.1755C4.72918 29.6589 4.13666 31.4744 4.16661 33.3333Z" fill="#F2B864" stroke="black" stroke-opacity="0.47" stroke-width="1.152" stroke-linecap="round" stroke-linejoin="round"/>
<path d="M87.4999 58.3333C86.0245 58.3201 84.5719 58.6989 83.2908 59.431C82.0097 60.163 80.946 61.2221 80.2083 62.5H62.4999V80.2083C60.9112 81.1256 59.6696 82.5414 58.9676 84.2362C58.2656 85.931 58.1424 87.8101 58.6172 89.582C59.092 91.354 60.1382 92.9198 61.5936 94.0365C63.0489 95.1532 64.8321 95.7585 66.6666 95.7585C68.501 95.7585 70.2842 95.1532 71.7396 94.0365C73.195 92.9198 74.2412 91.354 74.716 89.582C75.1908 87.8101 75.0676 85.931 74.3656 84.2362C73.6636 82.5414 72.4219 81.1256 70.8333 80.2083V70.8333H80.2083C80.9381 72.0974 81.9872 73.1475 83.2505 73.8787C84.5137 74.6099 85.9469 74.9964 87.4065 74.9997C88.8661 75.0029 90.3009 74.6227 91.5674 73.8971C92.8339 73.1715 93.8876 72.126 94.6231 70.8653C95.3586 69.6045 95.75 68.1726 95.7581 66.7131C95.7663 65.2535 95.391 63.8173 94.6697 62.5484C93.9485 61.2794 92.9065 60.2222 91.6483 59.4825C90.39 58.7427 88.9595 58.3465 87.4999 58.3333Z" fill="#F2B864" stroke="black" stroke-opacity="0.47" stroke-width="1.152" stroke-linecap="round" stroke-linejoin="round"/>
<path d="M37.5 80.2084V62.5H19.7917C18.8744 60.9114 17.4586 59.6697 15.7638 58.9677C14.069 58.2657 12.1899 58.1425 10.418 58.6173C8.64602 59.0921 7.08025 60.1383 5.96351 61.5937C4.84677 63.0491 4.24146 64.8323 4.24146 66.6667C4.24146 68.5012 4.84677 70.2844 5.96351 71.7397C7.08025 73.1951 8.64602 74.2413 10.418 74.7161C12.1899 75.1909 14.069 75.0677 15.7638 74.3657C17.4586 73.6637 18.8744 72.4221 19.7917 70.8334H29.1667V80.2084C27.578 81.1256 26.3363 82.5414 25.6343 84.2362C24.9323 85.931 24.8092 87.8101 25.284 89.5821C25.7587 91.354 26.805 92.9198 28.2603 94.0365C29.7157 95.1533 31.4989 95.7586 33.3333 95.7586C35.1678 95.7586 36.951 95.1533 38.4063 94.0365C39.8617 92.9198 40.9079 91.354 41.3827 89.5821C41.8575 87.8101 41.7343 85.931 41.0323 84.2362C40.3303 82.5414 39.0887 81.1256 37.5 80.2084Z" fill="#F2B864" stroke="black" stroke-opacity="0.47" stroke-width="1.152" stroke-linecap="round" stroke-linejoin="round"/>
</g>
<defs>
<clipPath id="clip0_36_268">
<rect width="100" height="100" fill="white"/>
</clipPath>
</defs>
</svg>
