<svg width="73" height="18" viewBox="0 0 73 18" fill="none" xmlns="http://www.w3.org/2000/svg">
<path d="M3.096 17V0.584H6.24V17H3.096ZM0.384 8.168V5.408H8.952V8.168H0.384ZM18.3829 17.24C17.1669 17.24 16.0869 16.984 15.1429 16.472C14.1989 15.944 13.4469 15.224 12.8869 14.312C12.3429 13.4 12.0709 12.36 12.0709 11.192C12.0709 10.04 12.3349 9.016 12.8629 8.12C13.4069 7.208 14.1429 6.488 15.0709 5.96C15.9989 5.416 17.0309 5.144 18.1669 5.144C19.2869 5.144 20.2709 5.4 21.1189 5.912C21.9829 6.408 22.6549 7.096 23.1349 7.976C23.6309 8.84 23.8789 9.824 23.8789 10.928C23.8789 11.136 23.8629 11.352 23.8309 11.576C23.8149 11.784 23.7749 12.024 23.7109 12.296L13.9669 12.32V9.968L22.2469 9.944L20.9749 10.928C20.9429 10.24 20.8149 9.664 20.5909 9.2C20.3829 8.736 20.0709 8.384 19.6549 8.144C19.2549 7.888 18.7589 7.76 18.1669 7.76C17.5429 7.76 16.9989 7.904 16.5349 8.192C16.0709 8.464 15.7109 8.856 15.4549 9.368C15.2149 9.864 15.0949 10.456 15.0949 11.144C15.0949 11.848 15.2229 12.464 15.4789 12.992C15.7509 13.504 16.1349 13.904 16.6309 14.192C17.1269 14.464 17.7029 14.6 18.3589 14.6C18.9509 14.6 19.4869 14.504 19.9669 14.312C20.4469 14.104 20.8629 13.8 21.2149 13.4L23.0629 15.248C22.5029 15.904 21.8149 16.4 20.9989 16.736C20.1989 17.072 19.3269 17.24 18.3829 17.24ZM33.0712 17.24C32.0152 17.24 31.0632 16.976 30.2152 16.448C29.3672 15.92 28.7032 15.2 28.2232 14.288C27.7432 13.376 27.5032 12.352 27.5032 11.216C27.5032 10.064 27.7432 9.032 28.2232 8.12C28.7032 7.208 29.3672 6.488 30.2152 5.96C31.0632 5.432 32.0152 5.168 33.0712 5.168C33.9032 5.168 34.6472 5.336 35.3032 5.672C35.9592 6.008 36.4792 6.48 36.8632 7.088C37.2632 7.68 37.4792 8.352 37.5112 9.104V13.28C37.4792 14.048 37.2632 14.728 36.8632 15.32C36.4792 15.912 35.9592 16.384 35.3032 16.736C34.6472 17.072 33.9032 17.24 33.0712 17.24ZM33.6472 14.336C34.5272 14.336 35.2392 14.048 35.7832 13.472C36.3272 12.88 36.5992 12.12 36.5992 11.192C36.5992 10.584 36.4712 10.048 36.2153 9.584C35.9752 9.104 35.6312 8.736 35.1832 8.48C34.7512 8.208 34.2392 8.072 33.6472 8.072C33.0712 8.072 32.5592 8.208 32.1112 8.48C31.6792 8.736 31.3352 9.104 31.0792 9.584C30.8392 10.048 30.7192 10.584 30.7192 11.192C30.7192 11.816 30.8392 12.368 31.0792 12.848C31.3352 13.312 31.6792 13.68 32.1112 13.952C32.5592 14.208 33.0712 14.336 33.6472 14.336ZM36.4312 17V13.88L36.9353 11.048L36.4312 8.264V5.408H39.5512V17H36.4312ZM44.7326 17V5.408H47.8766V17H44.7326ZM52.2926 17V10.16C52.2926 9.488 52.0766 8.968 51.6446 8.6C51.2286 8.216 50.7086 8.024 50.0846 8.024C49.6686 8.024 49.2926 8.112 48.9566 8.288C48.6206 8.448 48.3566 8.688 48.1646 9.008C47.9726 9.328 47.8766 9.712 47.8766 10.16L46.6526 9.56C46.6526 8.664 46.8446 7.888 47.2286 7.232C47.6286 6.576 48.1646 6.072 48.8366 5.72C49.5086 5.352 50.2686 5.168 51.1166 5.168C51.9166 5.168 52.6446 5.352 53.3006 5.72C53.9566 6.072 54.4766 6.576 54.8606 7.232C55.2446 7.872 55.4366 8.648 55.4366 9.56V17H52.2926ZM59.8526 17V10.16C59.8526 9.488 59.6366 8.968 59.2046 8.6C58.7886 8.216 58.2686 8.024 57.6446 8.024C57.2446 8.024 56.8686 8.112 56.5166 8.288C56.1806 8.448 55.9166 8.688 55.7246 9.008C55.5326 9.328 55.4366 9.712 55.4366 10.16L53.6366 9.728C53.7006 8.8 53.9486 8 54.3806 7.328C54.8126 6.64 55.3806 6.112 56.0846 5.744C56.7886 5.36 57.5726 5.168 58.4366 5.168C59.3006 5.168 60.0766 5.352 60.7646 5.72C61.4526 6.072 61.9966 6.584 62.3966 7.256C62.7966 7.928 62.9966 8.728 62.9966 9.656V17H59.8526Z" fill="black"/>
<path d="M70.1051 17.24C69.5291 17.24 69.0571 17.048 68.6891 16.664C68.3211 16.28 68.1371 15.808 68.1371 15.248C68.1371 14.688 68.3211 14.216 68.6891 13.832C69.0571 13.448 69.5291 13.256 70.1051 13.256C70.6651 13.256 71.1291 13.448 71.4971 13.832C71.8651 14.216 72.0491 14.688 72.0491 15.248C72.0491 15.808 71.8651 16.28 71.4971 16.664C71.1291 17.048 70.6651 17.24 70.1051 17.24Z" fill="#F2B864"/>
</svg>
